<svg xmlns="http://www.w3.org/2000/svg" width="512pt" height="512pt" viewBox="0 0 512 512"><g id="#000000ff"><path fill="#000000" opacity="1.00" d=" M 178.39 55.60 C 191.14 53.09 204.61 57.18 214.57 65.33 C 224.90 73.71 231.75 85.68 235.81 98.20 C 242.66 119.89 243.16 143.85 235.48 165.39 C 230.76 178.62 223.01 191.20 211.59 199.64 C 202.64 206.33 191.06 209.76 179.95 207.89 C 167.19 205.91 156.15 197.72 148.55 187.55 C 136.18 171.20 130.83 150.31 131.11 130.00 C 131.79 112.13 135.73 93.84 145.68 78.72 C 153.16 67.31 164.74 58.07 178.39 55.60 Z"></path><path fill="#000000" opacity="1.00" d=" M 320.30 55.25 C 331.79 53.66 343.68 57.22 352.84 64.22 C 363.85 72.49 371.13 84.84 375.40 97.76 C 382.56 120.00 382.99 144.69 374.76 166.71 C 369.78 180.02 361.65 192.63 349.77 200.74 C 340.44 207.17 328.51 210.00 317.38 207.47 C 304.87 204.77 294.38 196.21 287.10 185.95 C 275.61 169.82 270.61 149.70 270.87 130.06 C 271.55 111.63 275.70 92.68 286.35 77.33 C 294.20 65.95 306.37 57.02 320.30 55.25 Z"></path><path fill="#000000" opacity="1.00" d=" M 56.36 159.54 C 67.30 157.07 78.91 160.57 87.63 167.36 C 101.46 178.07 110.32 194.09 115.14 210.67 C 119.55 227.33 120.68 245.24 116.04 261.97 C 113.26 272.14 107.79 281.94 99.14 288.21 C 90.28 294.63 78.33 296.52 67.97 292.94 C 54.80 288.57 44.89 277.74 38.10 266.01 C 28.33 248.79 23.63 228.76 24.34 209.00 C 24.94 195.61 28.41 181.70 37.29 171.30 C 42.24 165.55 48.99 161.36 56.36 159.54 Z"></path><path fill="#000000" opacity="1.00" d=" M 440.42 159.64 C 449.81 157.45 460.14 159.29 467.88 165.16 C 478.14 172.82 483.85 185.13 486.34 197.43 C 490.43 218.15 486.63 239.89 477.93 258.96 C 471.98 271.72 462.91 283.72 450.10 290.15 C 440.46 295.10 428.54 295.92 418.64 291.24 C 407.98 286.35 400.56 276.23 396.84 265.34 C 392.16 251.74 392.14 236.98 394.30 222.90 C 396.58 206.98 402.91 191.59 412.80 178.88 C 419.84 169.99 429.14 162.21 440.42 159.64 Z"></path><path fill="#000000" opacity="1.00" d=" M 250.40 242.44 C 275.86 240.81 301.79 250.09 320.33 267.65 C 346.89 292.74 373.42 317.87 399.94 343.01 C 409.24 351.73 415.83 363.30 418.39 375.80 C 422.51 395.54 417.10 416.81 404.74 432.63 C 394.95 445.33 380.36 454.34 364.46 456.73 C 352.92 458.77 341.31 456.13 330.04 453.77 C 314.06 450.12 298.35 445.20 282.15 442.52 C 269.57 440.40 256.72 440.00 244.01 440.92 C 215.38 443.23 188.89 457.10 159.99 457.53 C 145.96 458.09 131.77 453.89 120.45 445.54 C 97.45 428.84 86.42 397.09 95.06 369.86 C 98.32 359.41 104.49 349.94 112.52 342.52 C 138.89 317.56 165.27 292.61 191.66 267.67 C 207.49 252.74 228.67 243.66 250.40 242.44 Z"></path></g></svg>